<svg xmlns="http://www.w3.org/2000/svg" width="1200" height="800" viewBox="0 0 1200 800"><defs>
  <filter id="sh" x="-25%" y="-25%" width="150%" height="160%"><feDropShadow dx="7" dy="13" stdDeviation="11" flood-color="#19203d" flood-opacity=".17"/><feDropShadow dx="1" dy="2" stdDeviation="1.4" flood-color="#19203d" flood-opacity=".16"/></filter>
  <filter id="shs" x="-25%" y="-25%" width="150%" height="160%"><feDropShadow dx="3" dy="5" stdDeviation="4" flood-color="#19203d" flood-opacity=".16"/><feDropShadow dx="0" dy="1" stdDeviation=".8" flood-color="#19203d" flood-opacity=".18"/></filter>
  <filter id="grain" x="0" y="0" width="100%" height="100%"><feTurbulence type="fractalNoise" baseFrequency=".85" numOctaves="2" stitchTiles="stitch"/><feColorMatrix values="0 0 0 0 .32 0 0 0 0 .27 0 0 0 0 .16 0 0 0 .11 0"/></filter>
  <filter id="blur18"><feGaussianBlur stdDeviation="18"/></filter>
  <linearGradient id="light" x1="0" x2="1"><stop offset="0" stop-color="#fff" stop-opacity=".42"/><stop offset=".45" stop-color="#fff" stop-opacity=".08"/><stop offset="1" stop-color="#5c4e2a" stop-opacity=".08"/></linearGradient>
  <radialGradient id="vig" cx=".45" cy=".45" r=".75"><stop offset=".6" stop-color="#3a2f17" stop-opacity="0"/><stop offset="1" stop-color="#3a2f17" stop-opacity=".16"/></radialGradient>
  <linearGradient id="shine" x1="0" y1="0" x2="0" y2="1"><stop offset="0" stop-color="#fff" stop-opacity=".45"/><stop offset=".35" stop-color="#fff" stop-opacity="0"/></linearGradient>
  <linearGradient id="steelH" x1="0" x2="1"><stop offset="0" stop-color="#8d939a"/><stop offset=".2" stop-color="#eef0ef"/><stop offset=".5" stop-color="#b3b8bd"/><stop offset=".75" stop-color="#f6f7f5"/><stop offset="1" stop-color="#868c93"/></linearGradient>
  <radialGradient id="heat"><stop offset="0" stop-color="#d6463c" stop-opacity=".95"/><stop offset=".32" stop-color="#ec8a3d" stop-opacity=".8"/><stop offset=".62" stop-color="#f6e04c" stop-opacity=".55"/><stop offset="1" stop-color="#f6e04c" stop-opacity="0"/></radialGradient>
  <radialGradient id="heatCool"><stop offset="0" stop-color="#ec8a3d" stop-opacity=".7"/><stop offset=".5" stop-color="#f6e04c" stop-opacity=".45"/><stop offset="1" stop-color="#86aaf0" stop-opacity="0"/></radialGradient>
  <radialGradient id="coffee" cx=".4" cy=".38" r=".7"><stop offset="0" stop-color="#8a5a35"/><stop offset=".7" stop-color="#5b3820"/><stop offset="1" stop-color="#3f2614"/></radialGradient>
  <pattern id="grid" width="28" height="28" patternUnits="userSpaceOnUse"><path d="M28 0H0V28" fill="none" stroke="#86aaf0" stroke-opacity=".35" stroke-width="1"/></pattern>
  <pattern id="ruled" width="10" height="30" patternUnits="userSpaceOnUse"><path d="M0 29.5H10" stroke="#2343c4" stroke-opacity=".14" stroke-width="1"/></pattern>
  <pattern id="dots" width="22" height="22" patternUnits="userSpaceOnUse"><circle cx="11" cy="11" r="1.4" fill="#2343c4" fill-opacity=".22"/></pattern>
</defs><defs><marker id="ah" viewBox="0 0 12 12" refX="9" refY="6" markerWidth="5" markerHeight="5" orient="auto-start-reverse"><path d="M1 1L10 6L1 11" fill="none" stroke="#394062" stroke-width="2.2" stroke-linecap="round" stroke-linejoin="round"/></marker></defs><rect width="1200" height="800" fill="#ece4d1"/>
  <path d="M0 144C360 96 720 208 1200 160" stroke="#d8cbb0" stroke-opacity=".35" stroke-width="2" fill="none"/>
  <path d="M0 496C420 448.00000000000006 840 560 1200 512" stroke="#d8cbb0" stroke-opacity=".3" stroke-width="2" fill="none"/>
  <rect width="1200" height="800" fill="url(#light)"/>
    <g transform="translate(120 380) rotate(-2)" filter="url(#sh)"><rect width="620" height="230" rx="16" fill="#dcd8cc"/><rect x="3" y="3" width="614" height="224" rx="14" fill="#e8e4d9"/><rect x="16.0" y="16.0" width="36.4" height="34.8" rx="5" fill="#f6e04c"/><rect x="16.0" y="46.8" width="36.4" height="4" rx="2" fill="#19203d" fill-opacity=".08"/><rect x="58.4" y="16.0" width="36.4" height="34.8" rx="5" fill="#fbfaf6"/><rect x="58.4" y="46.8" width="36.4" height="4" rx="2" fill="#19203d" fill-opacity=".08"/><rect x="100.9" y="16.0" width="36.4" height="34.8" rx="5" fill="#fbfaf6"/><rect x="100.9" y="46.8" width="36.4" height="4" rx="2" fill="#19203d" fill-opacity=".08"/><rect x="143.3" y="16.0" width="36.4" height="34.8" rx="5" fill="#fbfaf6"/><rect x="143.3" y="46.8" width="36.4" height="4" rx="2" fill="#19203d" fill-opacity=".08"/><rect x="185.7" y="16.0" width="36.4" height="34.8" rx="5" fill="#fbfaf6"/><rect x="185.7" y="46.8" width="36.4" height="4" rx="2" fill="#19203d" fill-opacity=".08"/><rect x="228.1" y="16.0" width="36.4" height="34.8" rx="5" fill="#fbfaf6"/><rect x="228.1" y="46.8" width="36.4" height="4" rx="2" fill="#19203d" fill-opacity=".08"/><rect x="270.6" y="16.0" width="36.4" height="34.8" rx="5" fill="#fbfaf6"/><rect x="270.6" y="46.8" width="36.4" height="4" rx="2" fill="#19203d" fill-opacity=".08"/><rect x="313.0" y="16.0" width="36.4" height="34.8" rx="5" fill="#fbfaf6"/><rect x="313.0" y="46.8" width="36.4" height="4" rx="2" fill="#19203d" fill-opacity=".08"/><rect x="355.4" y="16.0" width="36.4" height="34.8" rx="5" fill="#fbfaf6"/><rect x="355.4" y="46.8" width="36.4" height="4" rx="2" fill="#19203d" fill-opacity=".08"/><rect x="397.9" y="16.0" width="36.4" height="34.8" rx="5" fill="#fbfaf6"/><rect x="397.9" y="46.8" width="36.4" height="4" rx="2" fill="#19203d" fill-opacity=".08"/><rect x="440.3" y="16.0" width="36.4" height="34.8" rx="5" fill="#fbfaf6"/><rect x="440.3" y="46.8" width="36.4" height="4" rx="2" fill="#19203d" fill-opacity=".08"/><rect x="482.7" y="16.0" width="36.4" height="34.8" rx="5" fill="#fbfaf6"/><rect x="482.7" y="46.8" width="36.4" height="4" rx="2" fill="#19203d" fill-opacity=".08"/><rect x="525.1" y="16.0" width="36.4" height="34.8" rx="5" fill="#fbfaf6"/><rect x="525.1" y="46.8" width="36.4" height="4" rx="2" fill="#19203d" fill-opacity=".08"/><rect x="567.6" y="16.0" width="36.4" height="34.8" rx="5" fill="#fbfaf6"/><rect x="567.6" y="46.8" width="36.4" height="4" rx="2" fill="#19203d" fill-opacity=".08"/><rect x="16.0" y="56.8" width="36.4" height="34.8" rx="5" fill="#fbfaf6"/><rect x="16.0" y="87.6" width="36.4" height="4" rx="2" fill="#19203d" fill-opacity=".08"/><rect x="58.4" y="56.8" width="36.4" height="34.8" rx="5" fill="#fbfaf6"/><rect x="58.4" y="87.6" width="36.4" height="4" rx="2" fill="#19203d" fill-opacity=".08"/><rect x="100.9" y="56.8" width="36.4" height="34.8" rx="5" fill="#fbfaf6"/><rect x="100.9" y="87.6" width="36.4" height="4" rx="2" fill="#19203d" fill-opacity=".08"/><rect x="143.3" y="56.8" width="36.4" height="34.8" rx="5" fill="#fbfaf6"/><rect x="143.3" y="87.6" width="36.4" height="4" rx="2" fill="#19203d" fill-opacity=".08"/><rect x="185.7" y="56.8" width="36.4" height="34.8" rx="5" fill="#fbfaf6"/><rect x="185.7" y="87.6" width="36.4" height="4" rx="2" fill="#19203d" fill-opacity=".08"/><rect x="228.1" y="56.8" width="36.4" height="34.8" rx="5" fill="#fbfaf6"/><rect x="228.1" y="87.6" width="36.4" height="4" rx="2" fill="#19203d" fill-opacity=".08"/><rect x="270.6" y="56.8" width="36.4" height="34.8" rx="5" fill="#fbfaf6"/><rect x="270.6" y="87.6" width="36.4" height="4" rx="2" fill="#19203d" fill-opacity=".08"/><rect x="313.0" y="56.8" width="36.4" height="34.8" rx="5" fill="#fbfaf6"/><rect x="313.0" y="87.6" width="36.4" height="4" rx="2" fill="#19203d" fill-opacity=".08"/><rect x="355.4" y="56.8" width="36.4" height="34.8" rx="5" fill="#fbfaf6"/><rect x="355.4" y="87.6" width="36.4" height="4" rx="2" fill="#19203d" fill-opacity=".08"/><rect x="397.9" y="56.8" width="36.4" height="34.8" rx="5" fill="#fbfaf6"/><rect x="397.9" y="87.6" width="36.4" height="4" rx="2" fill="#19203d" fill-opacity=".08"/><rect x="440.3" y="56.8" width="36.4" height="34.8" rx="5" fill="#fbfaf6"/><rect x="440.3" y="87.6" width="36.4" height="4" rx="2" fill="#19203d" fill-opacity=".08"/><rect x="482.7" y="56.8" width="36.4" height="34.8" rx="5" fill="#fbfaf6"/><rect x="482.7" y="87.6" width="36.4" height="4" rx="2" fill="#19203d" fill-opacity=".08"/><rect x="525.1" y="56.8" width="36.4" height="34.8" rx="5" fill="#fbfaf6"/><rect x="525.1" y="87.6" width="36.4" height="4" rx="2" fill="#19203d" fill-opacity=".08"/><rect x="567.6" y="56.8" width="36.4" height="34.8" rx="5" fill="#fbfaf6"/><rect x="567.6" y="87.6" width="36.4" height="4" rx="2" fill="#19203d" fill-opacity=".08"/><rect x="16.0" y="97.6" width="36.4" height="34.8" rx="5" fill="#fbfaf6"/><rect x="16.0" y="128.4" width="36.4" height="4" rx="2" fill="#19203d" fill-opacity=".08"/><rect x="58.4" y="97.6" width="36.4" height="34.8" rx="5" fill="#fbfaf6"/><rect x="58.4" y="128.4" width="36.4" height="4" rx="2" fill="#19203d" fill-opacity=".08"/><rect x="100.9" y="97.6" width="36.4" height="34.8" rx="5" fill="#fbfaf6"/><rect x="100.9" y="128.4" width="36.4" height="4" rx="2" fill="#19203d" fill-opacity=".08"/><rect x="143.3" y="97.6" width="36.4" height="34.8" rx="5" fill="#fbfaf6"/><rect x="143.3" y="128.4" width="36.4" height="4" rx="2" fill="#19203d" fill-opacity=".08"/><rect x="185.7" y="97.6" width="36.4" height="34.8" rx="5" fill="#fbfaf6"/><rect x="185.7" y="128.4" width="36.4" height="4" rx="2" fill="#19203d" fill-opacity=".08"/><rect x="228.1" y="97.6" width="36.4" height="34.8" rx="5" fill="#fbfaf6"/><rect x="228.1" y="128.4" width="36.4" height="4" rx="2" fill="#19203d" fill-opacity=".08"/><rect x="270.6" y="97.6" width="36.4" height="34.8" rx="5" fill="#fbfaf6"/><rect x="270.6" y="128.4" width="36.4" height="4" rx="2" fill="#19203d" fill-opacity=".08"/><rect x="313.0" y="97.6" width="36.4" height="34.8" rx="5" fill="#fbfaf6"/><rect x="313.0" y="128.4" width="36.4" height="4" rx="2" fill="#19203d" fill-opacity=".08"/><rect x="355.4" y="97.6" width="36.4" height="34.8" rx="5" fill="#fbfaf6"/><rect x="355.4" y="128.4" width="36.4" height="4" rx="2" fill="#19203d" fill-opacity=".08"/><rect x="397.9" y="97.6" width="36.4" height="34.8" rx="5" fill="#fbfaf6"/><rect x="397.9" y="128.4" width="36.4" height="4" rx="2" fill="#19203d" fill-opacity=".08"/><rect x="440.3" y="97.6" width="36.4" height="34.8" rx="5" fill="#fbfaf6"/><rect x="440.3" y="128.4" width="36.4" height="4" rx="2" fill="#19203d" fill-opacity=".08"/><rect x="482.7" y="97.6" width="36.4" height="34.8" rx="5" fill="#fbfaf6"/><rect x="482.7" y="128.4" width="36.4" height="4" rx="2" fill="#19203d" fill-opacity=".08"/><rect x="525.1" y="97.6" width="36.4" height="34.8" rx="5" fill="#fbfaf6"/><rect x="525.1" y="128.4" width="36.4" height="4" rx="2" fill="#19203d" fill-opacity=".08"/><rect x="567.6" y="97.6" width="36.4" height="34.8" rx="5" fill="#2343c4"/><rect x="567.6" y="128.4" width="36.4" height="4" rx="2" fill="#19203d" fill-opacity=".08"/><rect x="16.0" y="138.4" width="36.4" height="34.8" rx="5" fill="#fbfaf6"/><rect x="16.0" y="169.2" width="36.4" height="4" rx="2" fill="#19203d" fill-opacity=".08"/><rect x="58.4" y="138.4" width="36.4" height="34.8" rx="5" fill="#fbfaf6"/><rect x="58.4" y="169.2" width="36.4" height="4" rx="2" fill="#19203d" fill-opacity=".08"/><rect x="100.9" y="138.4" width="36.4" height="34.8" rx="5" fill="#fbfaf6"/><rect x="100.9" y="169.2" width="36.4" height="4" rx="2" fill="#19203d" fill-opacity=".08"/><rect x="143.3" y="138.4" width="36.4" height="34.8" rx="5" fill="#fbfaf6"/><rect x="143.3" y="169.2" width="36.4" height="4" rx="2" fill="#19203d" fill-opacity=".08"/><rect x="185.7" y="138.4" width="36.4" height="34.8" rx="5" fill="#fbfaf6"/><rect x="185.7" y="169.2" width="36.4" height="4" rx="2" fill="#19203d" fill-opacity=".08"/><rect x="228.1" y="138.4" width="36.4" height="34.8" rx="5" fill="#fbfaf6"/><rect x="228.1" y="169.2" width="36.4" height="4" rx="2" fill="#19203d" fill-opacity=".08"/><rect x="270.6" y="138.4" width="36.4" height="34.8" rx="5" fill="#fbfaf6"/><rect x="270.6" y="169.2" width="36.4" height="4" rx="2" fill="#19203d" fill-opacity=".08"/><rect x="313.0" y="138.4" width="36.4" height="34.8" rx="5" fill="#fbfaf6"/><rect x="313.0" y="169.2" width="36.4" height="4" rx="2" fill="#19203d" fill-opacity=".08"/><rect x="355.4" y="138.4" width="36.4" height="34.8" rx="5" fill="#fbfaf6"/><rect x="355.4" y="169.2" width="36.4" height="4" rx="2" fill="#19203d" fill-opacity=".08"/><rect x="397.9" y="138.4" width="36.4" height="34.8" rx="5" fill="#fbfaf6"/><rect x="397.9" y="169.2" width="36.4" height="4" rx="2" fill="#19203d" fill-opacity=".08"/><rect x="440.3" y="138.4" width="36.4" height="34.8" rx="5" fill="#fbfaf6"/><rect x="440.3" y="169.2" width="36.4" height="4" rx="2" fill="#19203d" fill-opacity=".08"/><rect x="482.7" y="138.4" width="36.4" height="34.8" rx="5" fill="#fbfaf6"/><rect x="482.7" y="169.2" width="36.4" height="4" rx="2" fill="#19203d" fill-opacity=".08"/><rect x="525.1" y="138.4" width="36.4" height="34.8" rx="5" fill="#fbfaf6"/><rect x="525.1" y="169.2" width="36.4" height="4" rx="2" fill="#19203d" fill-opacity=".08"/><rect x="567.6" y="138.4" width="36.4" height="34.8" rx="5" fill="#fbfaf6"/><rect x="567.6" y="169.2" width="36.4" height="4" rx="2" fill="#19203d" fill-opacity=".08"/><rect x="16.0" y="179.2" width="36.4" height="34.8" rx="5" fill="#fbfaf6"/><rect x="16.0" y="210.0" width="36.4" height="4" rx="2" fill="#19203d" fill-opacity=".08"/><rect x="58.4" y="179.2" width="36.4" height="34.8" rx="5" fill="#fbfaf6"/><rect x="58.4" y="210.0" width="36.4" height="4" rx="2" fill="#19203d" fill-opacity=".08"/><rect x="100.9" y="179.2" width="36.4" height="34.8" rx="5" fill="#fbfaf6"/><rect x="100.9" y="210.0" width="36.4" height="4" rx="2" fill="#19203d" fill-opacity=".08"/><rect x="143.3" y="179.2" width="333.4" height="34.8" rx="5" fill="#fbfaf6"/><rect x="143.3" y="210.0" width="333.4" height="4" rx="2" fill="#19203d" fill-opacity=".08"/><rect x="482.7" y="179.2" width="36.4" height="34.8" rx="5" fill="#fbfaf6"/><rect x="482.7" y="210.0" width="36.4" height="4" rx="2" fill="#19203d" fill-opacity=".08"/><rect x="525.1" y="179.2" width="36.4" height="34.8" rx="5" fill="#f6c8d7"/><rect x="525.1" y="210.0" width="36.4" height="4" rx="2" fill="#19203d" fill-opacity=".08"/><rect x="567.6" y="179.2" width="36.4" height="34.8" rx="5" fill="#fbfaf6"/><rect x="567.6" y="210.0" width="36.4" height="4" rx="2" fill="#19203d" fill-opacity=".08"/></g>
    <g transform="translate(840 480) rotate(10)" filter="url(#sh)"><path d="M0 -70C40 -70 52 -40 52 0S40 78 0 78-52 40-52 0-40 -70 0 -70Z" fill="#fbfaf6"/><path d="M0 -70V-14M-52 -14H52" stroke="#19203d" stroke-opacity=".12" stroke-width="3" fill="none"/><rect x="-6" y="-52" width="12" height="24" rx="6" fill="#394062"/><path d="M-30 -50C-22 -62 -10 -66 0 -66" stroke="#fff" stroke-width="5" stroke-linecap="round" fill="none" opacity=".8"/></g>
    <g transform="translate(980 260) rotate(-6) scale(1.25)" filter="url(#sh)">
    <path d="M-70 10C-74 -26 -40 -40 0 -36C30 -34 46 -20 64 -26C70 -6 62 30 30 44C0 56 -56 52 -70 10Z" fill="#f6d23c"/>
    <circle cx="-24" cy="-58" r="38" fill="#f6d23c"/><path d="M-60 -50C-78 -52 -92 -44 -94 -38C-84 -34 -70 -36 -58 -40Z" fill="#ec8a3d"/>
    <circle cx="-34" cy="-66" r="6" fill="#19203d"/><circle cx="-36" cy="-68" r="2" fill="#fff"/>
    <path d="M-12 -2C8 -10 30 -6 40 8C22 22 -2 18 -12 -2Z" fill="#e8bd22"/>
    <path d="M-46 -82C-36 -94 -16 -96 -4 -88" stroke="#fff" stroke-opacity=".6" stroke-width="6" stroke-linecap="round" fill="none"/>
  </g>
    <g transform="translate(120 70) rotate(-6)"><rect width="280" height="230" rx="3" fill="#fffdf7" filter="url(#sh)"/><g transform="translate(20 10)" fill="none" stroke="#2343c4" stroke-width="7" stroke-linecap="round" stroke-linejoin="round"><path d="M76 40C52 40 52 62 52 80S40 104 30 106C40 108 52 114 52 132S52 172 76 172"/><path d="M164 40C188 40 188 62 188 80S200 104 210 106C200 108 188 114 188 132S188 172 164 172"/></g><rect x="92" y="96" width="56" height="18" rx="9" fill="#f6e04c"/></g>
    <g transform="translate(440 90) rotate(5)" filter="url(#shs)"><path d="M0 0H170V134L144 160H0Z" fill="#f9ea92"/><path d="M0 0H170V56H0Z" fill="url(#shine)"/><path d="M144 160V134H170Z" fill="#19203d" fill-opacity=".12"/><path d="M26 46h93.1" stroke="#c9b85a" stroke-width="8" stroke-linecap="round"/><path d="M26 76h85.8" stroke="#c9b85a" stroke-width="8" stroke-linecap="round"/><path d="M26 106h64.9" stroke="#c9b85a" stroke-width="8" stroke-linecap="round"/></g>
    <g transform="translate(630 120) rotate(-4)" filter="url(#shs)"><path d="M0 0H170V134L144 160H0Z" fill="#f6c8d7"/><path d="M0 0H170V56H0Z" fill="url(#shine)"/><path d="M144 160V134H170Z" fill="#19203d" fill-opacity=".12"/><g transform="translate(47 42) scale(3.1666666666666665)" fill="none" stroke="#c4571a" stroke-width="2.2" stroke-linecap="round" stroke-linejoin="round"><path d="m8 2 1.9 1.9M14.1 3.9 16 2M9 7.1v-1a3 3 0 1 1 6 0v1M12 20c-3.3 0-6-2.7-6-6v-3a4 4 0 0 1 4-4h4a4 4 0 0 1 4 4v3c0 3.3-2.7 6-6 6M12 20v-9M6.5 9C4.6 8.8 3 7.1 3 5M6 13H2M3 21c0-2.1 1.7-3.9 3.8-4M21 5c0 2.1-1.6 3.8-3.5 4M22 13h-4M17.2 17c2.1.1 3.8 1.9 3.8 4"/></g></g>
    <g transform="translate(250 640) rotate(3)" filter="url(#shs)"><path d="M0 0H170V118L148 140H0Z" fill="#c2e5f1"/><path d="M0 0H170V49H0Z" fill="url(#shine)"/><path d="M148 140V118H170Z" fill="#19203d" fill-opacity=".12"/><g transform="translate(53 38) scale(2.6666666666666665)" fill="none" stroke="#3c9a55" stroke-width="3" stroke-linecap="round" stroke-linejoin="round"><path d="M20 6 9 17l-5-5"/></g></g>
    <g transform="translate(1040 640)" filter="url(#sh)">
    <rect x="57.599999999999994" y="-19.2" width="57.599999999999994" height="38.4" rx="19.2" fill="none" stroke="#2343c4" stroke-width="14.399999999999999"/>
    <circle r="80" fill="#2343c4"/><circle r="67.2" fill="#fffdf7"/><circle r="59.2" fill="url(#coffee)"/>
    <ellipse cx="-20" cy="-22.400000000000002" rx="17.6" ry="9.6" fill="#fff" fill-opacity=".18" transform="rotate(-30 -20 -22.400000000000002)"/>
  </g>
    <path d="M720 440C780 380 760 300 860 300S960 360 1000 340" stroke="#2b3145" stroke-width="7" fill="none" stroke-linecap="round" opacity=".85"/>
    <g transform="translate(500 700) rotate(-12)" filter="url(#shs)">
    <rect x="0" y="-8" width="260" height="16" fill="#c4571a"/><rect x="0" y="-8" width="260" height="5.333333333333333" fill="#fff" fill-opacity=".25"/>
    <rect x="-22" y="-8" width="16" height="16" rx="3" fill="#f2a7b8"/><rect x="-8" y="-8" width="10" height="16" fill="#c9ccd1"/>
    <path d="M260 -8L290 0L260 8Z" fill="#e9c99a"/><path d="M280 -2.7L290 0L280 2.7Z" fill="#19203d"/>
  </g>
    <rect width="1200" height="800" filter="url(#grain)" opacity=".9"/><rect width="1200" height="800" fill="url(#vig)"/></svg>
